<?xml version="1.0" encoding="UTF-8"?>
<!DOCTYPE svg PUBLIC "-//W3C//DTD SVG 1.1//EN" "http://www.w3.org/Graphics/SVG/1.1/DTD/svg11.dtd">
<svg xmlns="http://www.w3.org/2000/svg" version="1.1" width="960px" height="250px" style="shape-rendering:geometricPrecision; text-rendering:geometricPrecision; image-rendering:optimizeQuality; fill-rule:evenodd; clip-rule:evenodd" xmlns:xlink="http://www.w3.org/1999/xlink">
<g><path style="opacity:0.983" fill="#02a2ff" d="M 118.5,45.5 C 120.591,45.3184 122.591,45.6518 124.5,46.5C 147.613,78.4207 170.946,110.087 194.5,141.5C 195.374,143.747 195.708,146.08 195.5,148.5C 169.926,148.828 144.426,148.495 119,147.5C 118.5,113.502 118.333,79.5016 118.5,45.5 Z"/></g>
<g><path style="opacity:0.978" fill="#06a2ff" d="M 105.5,72.5 C 106.93,72.4208 108.264,72.7542 109.5,73.5C 110.823,98.2026 110.823,122.869 109.5,147.5C 91.1788,148.5 72.8454,148.833 54.5,148.5C 54.0025,144.781 54.8358,141.447 57,138.5C 73.4201,116.648 89.5868,94.6482 105.5,72.5 Z"/></g>
<g><path style="opacity:0.932" fill="#fefffe" d="M 220.5,78.5 C 244.833,78.5 269.167,78.5 293.5,78.5C 293.5,83.5 293.5,88.5 293.5,93.5C 284.5,93.5 275.5,93.5 266.5,93.5C 266.5,118.5 266.5,143.5 266.5,168.5C 260.5,168.5 254.5,168.5 248.5,168.5C 248.5,143.5 248.5,118.5 248.5,93.5C 239.5,93.5 230.5,93.5 221.5,93.5C 221.084,88.5068 220.751,83.5068 220.5,78.5 Z"/></g>
<g><path style="opacity:0.93" fill="#fefffe" d="M 444.5,78.5 C 450.167,78.5 455.833,78.5 461.5,78.5C 461.7,108.502 462.033,138.502 462.5,168.5C 456.5,168.5 450.5,168.5 444.5,168.5C 444.5,138.5 444.5,108.5 444.5,78.5 Z"/></g>
<g><path style="opacity:0.938" fill="#fefffe" d="M 471.5,78.5 C 478.09,78.189 484.59,78.5223 491,79.5C 498.469,102.241 506.136,124.908 514,147.5C 521.809,124.575 529.309,101.575 536.5,78.5C 543.175,78.3337 549.842,78.5004 556.5,79C 546.03,108.743 535.364,138.409 524.5,168C 517.174,168.5 509.841,168.666 502.5,168.5C 492.17,138.512 481.837,108.512 471.5,78.5 Z"/></g>
<g><path style="opacity:0.936" fill="#fefffe" d="M 316.5,100.5 C 342.435,97.6093 356.435,109.109 358.5,135C 357.596,159.575 344.929,171.241 320.5,170C 301.701,166.13 292.368,154.464 292.5,135C 292.243,117.469 300.243,105.969 316.5,100.5 Z M 321.5,113.5 C 332.267,112.762 338.433,117.762 340,128.5C 342.215,138.227 340.048,146.727 333.5,154C 322.034,159.173 314.534,155.673 311,143.5C 309.685,135.161 310.685,127.161 314,119.5C 316.114,116.879 318.614,114.879 321.5,113.5 Z"/></g>
<g><path style="opacity:0.938" fill="#fefffe" d="M 391.5,100.5 C 417.635,97.6369 431.635,109.304 433.5,135.5C 430.329,164.102 414.663,174.935 386.5,168C 372.957,161.256 366.623,150.256 367.5,135C 367.236,117.474 375.236,105.974 391.5,100.5 Z M 396.5,113.5 C 407.151,112.915 413.318,117.915 415,128.5C 416.45,136.676 415.117,144.343 411,151.5C 403.333,158.375 396,158.041 389,150.5C 383.108,140.177 383.108,129.844 389,119.5C 391.114,116.879 393.614,114.879 396.5,113.5 Z"/></g>
<g><path style="opacity:0.936" fill="#fefffe" d="M 579.5,100.5 C 605.435,97.6093 619.435,109.109 621.5,135C 620.596,159.575 607.929,171.241 583.5,170C 564.701,166.13 555.368,154.464 555.5,135C 555.243,117.469 563.243,105.969 579.5,100.5 Z M 584.5,113.5 C 595.267,112.762 601.433,117.762 603,128.5C 605.215,138.227 603.048,146.727 596.5,154C 585.034,159.173 577.534,155.673 574,143.5C 572.685,135.161 573.685,127.161 577,119.5C 579.114,116.879 581.614,114.879 584.5,113.5 Z"/></g>
<g><path style="opacity:0.942" fill="#fefffe" d="M 718.5,100.5 C 724.842,100.334 731.175,100.5 737.5,101C 746.062,102.564 751.896,107.397 755,115.5C 755.5,133.164 755.667,150.83 755.5,168.5C 750.167,168.5 744.833,168.5 739.5,168.5C 739.663,166.143 739.497,163.81 739,161.5C 732.633,169.058 724.466,171.892 714.5,170C 700.828,166.98 694.995,158.48 697,144.5C 698.807,137.36 703.307,132.86 710.5,131C 719.82,129.6 728.987,127.766 738,125.5C 738.105,115.1 732.938,111.267 722.5,114C 719.362,115.305 717.029,117.471 715.5,120.5C 709.708,121.341 704.042,120.674 698.5,118.5C 702.317,109.27 708.983,103.27 718.5,100.5 Z M 737.5,137.5 C 740.745,149.334 736.245,156.001 724,157.5C 713.637,156.606 711.137,151.773 716.5,143C 723.553,140.945 730.553,139.112 737.5,137.5 Z"/></g>
<g><path style="opacity:0.941" fill="#fefffe" d="M 788.5,100.5 C 799.78,97.8645 808.613,101.198 815,110.5C 815.498,107.518 815.665,104.518 815.5,101.5C 821.167,101.5 826.833,101.5 832.5,101.5C 832.667,125.836 832.5,150.169 832,174.5C 830.134,183.372 824.967,189.538 816.5,193C 804.712,196.569 793.045,196.236 781.5,192C 775.574,189.239 771.574,184.739 769.5,178.5C 773.816,176.628 778.316,175.295 783,174.5C 786.638,176.79 790.304,179.123 794,181.5C 811.899,184.258 818.899,176.592 815,158.5C 812.188,162.662 808.355,165.495 803.5,167C 784.146,170.286 772.312,162.453 768,143.5C 765.183,128.524 769.016,115.691 779.5,105C 782.592,103.454 785.592,101.954 788.5,100.5 Z M 799.5,113.5 C 810.966,115.88 816.299,123.047 815.5,135C 815.509,148.663 808.842,154.997 795.5,154C 787.843,149.855 784.509,143.355 785.5,134.5C 784.756,123.624 789.423,116.624 799.5,113.5 Z"/></g>
<g><path style="opacity:0.944" fill="#fefffe" d="M 867.5,100.5 C 895.945,97.9441 909.278,110.944 907.5,139.5C 892.167,139.5 876.833,139.5 861.5,139.5C 862.515,153.502 869.848,159.002 883.5,156C 886.72,154.734 889.053,152.567 890.5,149.5C 907.88,145.392 911.214,149.892 900.5,163C 883.694,173.601 867.528,172.768 852,160.5C 841.228,144.399 840.895,128.065 851,111.5C 855.632,106.34 861.132,102.673 867.5,100.5 Z M 872.5,113.5 C 882.984,112.572 889.317,117.239 891.5,127.5C 881.522,128.499 871.522,128.832 861.5,128.5C 862.513,121.446 866.179,116.446 872.5,113.5 Z"/></g>
<g><path style="opacity:0.933" fill="#fefffe" d="M 625.5,101.5 C 631.833,101.5 638.167,101.5 644.5,101.5C 648.825,117.642 653.658,133.642 659,149.5C 664.147,133.573 668.981,117.573 673.5,101.5C 679.842,101.334 686.175,101.5 692.5,102C 682.535,129.56 672.368,157.06 662,184.5C 652.909,194.371 642.409,196.538 630.5,191C 631.894,187.255 632.894,183.422 633.5,179.5C 642.607,182.277 647.94,178.944 649.5,169.5C 641.489,146.817 633.489,124.151 625.5,101.5 Z"/></g>
<g><path style="opacity:0.973" fill="#02a2ff" d="M 60.5,156.5 C 103.835,156.333 147.168,156.5 190.5,157C 191.022,157.561 191.355,158.228 191.5,159C 183.945,168.48 175.945,177.48 167.5,186C 138.167,186.667 108.833,186.667 79.5,186C 74.0291,178.229 68.1958,170.729 62,163.5C 60.7978,161.323 60.2978,158.989 60.5,156.5 Z"/></g>
</svg>
